<svg xmlns="http://www.w3.org/2000/svg" version="1.1" xmlns:xlink="http://www.w3.org/1999/xlink" xmlns:svgjs="http://svgjs.dev/svgjs" width="40" height="40"><svg width="40" height="40" viewBox="0 0 40 40" fill="none" xmlns="http://www.w3.org/2000/svg">
<path opacity="0.2" d="M10 23.75C8.615 23.75 7.5 24.93 7.5 26.3965V36.875C7.5 37.9137 8.19688 38.75 9.0625 38.75H12.5H17.5H22.5H27.5H30.9375C31.8031 38.75 32.5 37.9137 32.5 36.875V26.3965C32.5 24.93 31.385 23.75 30 23.75C28.615 23.75 27.5 24.93 27.5 26.3965V28.2495C27.5 26.7953 26.385 25.625 25 25.625C23.615 25.625 22.5 26.7953 22.5 28.2495V28.9282C22.5 27.4443 21.385 26.25 20 26.25C18.615 26.25 17.5 27.4443 17.5 28.9282V28.2495C17.5 26.7953 16.385 25.625 15 25.625C13.615 25.625 12.5 26.7953 12.5 28.2495V26.3965C12.5 24.93 11.385 23.75 10 23.75Z" fill="black"></path>
<path opacity="0.2" d="M23.75 3.75C21.7669 3.75085 19.8288 4.34134 18.182 5.4464C16.5353 6.55146 15.2543 8.12118 14.502 9.95605C13.5966 9.1789 12.4432 8.75113 11.25 8.75C9.92392 8.75 8.65215 9.27678 7.71447 10.2145C6.77678 11.1521 6.25 12.4239 6.25 13.75C6.25132 14.8483 6.61425 15.9156 7.28271 16.7871C6.59265 17.1629 6.01651 17.7176 5.61484 18.3929C5.21317 19.0682 5.00079 19.8393 5 20.625C5 21.7853 5.46094 22.8981 6.28141 23.7186C7.10188 24.5391 8.21468 25 9.375 25C9.58423 24.9987 9.7931 24.9824 10 24.9512V26.25C10 28.3275 11.6725 30 13.75 30H26.25C28.3275 30 30 28.3275 30 26.25V26.1987C30.2068 26.2307 30.4157 26.2479 30.625 26.25C31.7853 26.25 32.8981 25.7891 33.7186 24.9686C34.5391 24.1481 35 23.0353 35 21.875C34.9996 21.0974 34.792 20.3339 34.3985 19.6632C34.005 18.9925 33.4398 18.4388 32.7612 18.0591C33.4082 16.7145 33.746 15.2421 33.75 13.75C33.75 11.0978 32.6964 8.5543 30.8211 6.67893C28.9457 4.80357 26.4022 3.75 23.75 3.75Z" fill="black"></path>
<path d="M23.75 2.5C21.7669 2.50085 19.8288 3.09134 18.182 4.1964C16.5353 5.30146 15.2543 6.87118 14.502 8.70605C13.5966 7.9289 12.4432 7.50113 11.25 7.5C9.92392 7.5 8.65215 8.02678 7.71447 8.96447C6.77678 9.90215 6.25 11.1739 6.25 12.5C6.25132 13.5983 6.61425 14.6656 7.28271 15.5371C6.59265 15.9129 6.01651 16.4676 5.61484 17.1429C5.21317 17.8182 5.00079 18.5893 5 19.375C5 20.5353 5.46094 21.6481 6.28141 22.4686C7.10188 23.2891 8.21468 23.75 9.375 23.75C9.58423 23.7487 9.7931 23.7324 10 23.7012V25C10 27.0775 11.6725 28.75 13.75 28.75H26.25C28.3275 28.75 30 27.0775 30 25V24.9487C30.2068 24.9807 30.4157 24.9979 30.625 25C31.7853 25 32.8981 24.5391 33.7186 23.7186C34.5391 22.8981 35 21.7853 35 20.625C34.9996 19.8474 34.792 19.0839 34.3985 18.4132C34.005 17.7425 33.4398 17.1888 32.7612 16.8091C33.4082 15.4645 33.746 13.9921 33.75 12.5C33.75 9.84784 32.6964 7.3043 30.8211 5.42893C28.9457 3.55357 26.4022 2.5 23.75 2.5Z" fill="#E6C59A"></path>
<path d="M23.75 18.75C23.75 20.8211 22.0711 22.5 20 22.5C17.9289 22.5 16.25 20.8211 16.25 18.75H23.75Z" fill="#A81A1A"></path>
<path d="M13.75 18.75C15.1307 18.75 16.25 17.6307 16.25 16.25C16.25 14.8693 15.1307 13.75 13.75 13.75C12.3693 13.75 11.25 14.8693 11.25 16.25C11.25 17.6307 12.3693 18.75 13.75 18.75Z" fill="#3F3F3F"></path>
<path d="M14.375 16.25C14.7202 16.25 15 15.9702 15 15.625C15 15.2798 14.7202 15 14.375 15C14.0298 15 13.75 15.2798 13.75 15.625C13.75 15.9702 14.0298 16.25 14.375 16.25Z" fill="white"></path>
<path d="M30 22.5C28.615 22.5 27.5 23.6806 27.5 25.1471V37.5H30.9375C31.8031 37.5 32.5 36.6637 32.5 35.625V25.1471C32.5 23.6806 31.385 22.5 30 22.5Z" fill="#E54B3F"></path>
<path d="M20 25C18.615 25 17.5 26.1946 17.5 27.6786V37.5H22.5V27.6786C22.5 26.1946 21.385 25 20 25Z" fill="#E54B3F"></path>
<path d="M25 24.375C23.615 24.375 22.5 25.5458 22.5 27V37.5H27.5V27C27.5 25.5458 26.385 24.375 25 24.375Z" fill="white"></path>
<path d="M10 22.5C11.385 22.5 12.5 23.6806 12.5 25.1471V37.5H9.0625C8.19688 37.5 7.5 36.6637 7.5 35.625V25.1471C7.5 23.6806 8.615 22.5 10 22.5Z" fill="#E54B3F"></path>
<path d="M15 24.375C16.385 24.375 17.5 25.5458 17.5 27V37.5H12.5V27C12.5 25.5458 13.615 24.375 15 24.375Z" fill="white"></path>
<path d="M26.25 18.75C27.6307 18.75 28.75 17.6307 28.75 16.25C28.75 14.8693 27.6307 13.75 26.25 13.75C24.8693 13.75 23.75 14.8693 23.75 16.25C23.75 17.6307 24.8693 18.75 26.25 18.75Z" fill="#3F3F3F"></path>
<path d="M26.875 16.25C27.2202 16.25 27.5 15.9702 27.5 15.625C27.5 15.2798 27.2202 15 26.875 15C26.5298 15 26.25 15.2798 26.25 15.625C26.25 15.9702 26.5298 16.25 26.875 16.25Z" fill="white"></path>
<path opacity="0.2" d="M23.75 2.5C21.7669 2.50085 19.8288 3.09134 18.182 4.1964C16.5353 5.30146 15.2543 6.87118 14.502 8.70605C13.5966 7.9289 12.4432 7.50113 11.25 7.5C9.92392 7.5 8.65215 8.02678 7.71447 8.96447C6.77678 9.90215 6.25 11.1739 6.25 12.5C6.25126 12.7115 6.26594 12.9227 6.29395 13.1323C6.44443 11.9235 7.03102 10.8112 7.94357 10.0043C8.85613 9.1974 10.0319 8.75138 11.25 8.75C12.4432 8.75113 13.5966 9.1789 14.502 9.95605C15.2543 8.12118 16.5353 6.55146 18.182 5.4464C19.8288 4.34134 21.7669 3.75085 23.75 3.75C26.2943 3.75267 28.7419 4.72504 30.5943 6.46909C32.4468 8.21315 33.5648 10.5977 33.7207 13.1372C33.7372 12.9252 33.747 12.7127 33.75 12.5C33.75 9.84784 32.6964 7.3043 30.8211 5.42893C28.9457 3.55357 26.4022 2.5 23.75 2.5ZM6.74316 15.8911C6.20324 16.2977 5.76486 16.8239 5.46242 17.4283C5.15997 18.0328 5.0017 18.6991 5 19.375C5.00154 19.5826 5.01786 19.7898 5.04883 19.9951C5.14694 19.3238 5.39985 18.6845 5.78755 18.1277C6.17525 17.571 6.68712 17.112 7.28271 16.7871C7.07204 16.5081 6.8912 16.2078 6.74316 15.8911ZM33.1689 17.0752C33.0506 17.4102 32.9145 17.7386 32.7612 18.0591C33.3474 18.3881 33.8499 18.8478 34.2297 19.4024C34.6095 19.9571 34.8564 20.5918 34.9512 21.2573C34.9827 21.048 34.999 20.8367 35 20.625C34.9985 19.9304 34.8316 19.2462 34.5132 18.6289C34.1948 18.0117 33.734 17.4791 33.1689 17.0752Z" fill="white"></path>
</svg><style>@media (prefers-color-scheme: light) { :root { filter: none; } }
@media (prefers-color-scheme: dark) { :root { filter: none; } }
</style></svg>