<svg viewBox="0 0 800 800" fill="none" xmlns="http://www.w3.org/2000/svg">
    <g clip-path="url(#clip0_5_2)">
        <path opacity="0.2" d="M200 475C172.3 475 150 498.6 150 527.93V737.5C150 758.274 163.938 775 181.25 775H250H350H450H550H618.75C636.062 775 650 758.274 650 737.5V527.93C650 498.6 627.7 475 600 475C572.3 475 550 498.6 550 527.93V564.99C550 535.906 527.7 512.5 500 512.5C472.3 512.5 450 535.906 450 564.99V578.564C450 548.886 427.7 525 400 525C372.3 525 350 548.886 350 578.564V564.99C350 535.906 327.7 512.5 300 512.5C272.3 512.5 250 535.906 250 564.99V527.93C250 498.6 227.7 475 200 475Z" fill="black"/>
        <path opacity="0.2" d="M475 75C435.338 75.017 396.576 86.8268 363.64 108.928C330.706 131.029 305.086 162.424 290.04 199.121C271.932 183.578 248.864 175.023 225 175C198.478 175 173.043 185.536 154.289 204.29C135.536 223.042 125 248.478 125 275C125.026 296.966 132.285 318.312 145.654 335.742C131.853 343.258 120.33 354.352 112.297 367.858C104.263 381.364 100.016 396.786 100 412.5C100 435.706 109.219 457.962 125.628 474.372C142.038 490.782 164.294 500 187.5 500C191.685 499.974 195.862 499.648 200 499.024V525C200 566.55 233.45 600 275 600H525C566.55 600 600 566.55 600 525V523.974C604.136 524.614 608.314 524.958 612.5 525C635.706 525 657.962 515.782 674.372 499.372C690.782 482.962 700 460.706 700 437.5C699.992 421.948 695.84 406.678 687.97 393.264C680.1 379.85 668.796 368.776 655.224 361.182C668.164 334.29 674.92 304.842 675 275C675 221.956 653.928 171.086 616.422 133.579C578.914 96.0714 528.044 75 475 75Z" fill="black"/>
        <path d="M475 50C435.338 50.017 396.576 61.8268 363.64 83.928C330.706 106.029 305.086 137.424 290.04 174.121C271.932 158.578 248.864 150.023 225 150C198.478 150 173.043 160.536 154.289 179.289C135.536 198.043 125 223.478 125 250C125.026 271.966 132.285 293.312 145.654 310.742C131.853 318.258 120.33 329.352 112.297 342.858C104.263 356.364 100.016 371.786 100 387.5C100 410.706 109.219 432.962 125.628 449.372C142.038 465.782 164.294 475 187.5 475C191.685 474.974 195.862 474.648 200 474.024V500C200 541.55 233.45 575 275 575H525C566.55 575 600 541.55 600 500V498.974C604.136 499.614 608.314 499.958 612.5 500C635.706 500 657.962 490.782 674.372 474.372C690.782 457.962 700 435.706 700 412.5C699.992 396.948 695.84 381.678 687.97 368.264C680.1 354.85 668.796 343.776 655.224 336.182C668.164 309.29 674.92 279.842 675 250C675 196.957 653.928 146.086 616.422 108.579C578.914 71.0714 528.044 50 475 50Z" fill="#E6C59A"/>
        <path d="M475 375C475 416.422 441.422 450 400 450C358.578 450 325 416.422 325 375H475Z" fill="#A81A1A"/>
        <path d="M275 375C302.614 375 325 352.614 325 325C325 297.386 302.614 275 275 275C247.386 275 225 297.386 225 325C225 352.614 247.386 375 275 375Z" fill="#3F3F3F"/>
        <path d="M287.5 325C294.404 325 300 319.404 300 312.5C300 305.596 294.404 300 287.5 300C280.596 300 275 305.596 275 312.5C275 319.404 280.596 325 287.5 325Z" fill="white"/>
        <path d="M600 450C572.3 450 550 473.612 550 502.942V750H618.75C636.062 750 650 733.274 650 712.5V502.942C650 473.612 627.7 450 600 450Z" fill="#E54B3F"/>
        <path d="M400 500C372.3 500 350 523.892 350 553.572V750H450V553.572C450 523.892 427.7 500 400 500Z" fill="#E54B3F"/>
        <path d="M500 487.5C472.3 487.5 450 510.916 450 540V750H550V540C550 510.916 527.7 487.5 500 487.5Z" fill="white"/>
        <path d="M200 450C227.7 450 250 473.612 250 502.942V750H181.25C163.938 750 150 733.274 150 712.5V502.942C150 473.612 172.3 450 200 450Z" fill="#E54B3F"/>
        <path d="M300 487.5C327.7 487.5 350 510.916 350 540V750H250V540C250 510.916 272.3 487.5 300 487.5Z" fill="white"/>
        <path d="M525 375C552.614 375 575 352.614 575 325C575 297.386 552.614 275 525 275C497.386 275 475 297.386 475 325C475 352.614 497.386 375 525 375Z" fill="#3F3F3F"/>
        <path d="M537.5 325C544.404 325 550 319.404 550 312.5C550 305.596 544.404 300 537.5 300C530.596 300 525 305.596 525 312.5C525 319.404 530.596 325 537.5 325Z" fill="white"/>
        <path opacity="0.2" d="M475 50C435.338 50.017 396.576 61.8268 363.64 83.928C330.706 106.029 305.086 137.424 290.04 174.121C271.932 158.578 248.864 150.023 225 150C198.478 150 173.043 160.536 154.289 179.289C135.536 198.043 125 223.478 125 250C125.025 254.23 125.319 258.454 125.879 262.646C128.889 238.47 140.62 216.224 158.871 200.086C177.123 183.948 200.638 175.028 225 175C248.864 175.023 271.932 183.578 290.04 199.121C305.086 162.424 330.706 131.029 363.64 108.928C396.576 86.8268 435.338 75.017 475 75C525.886 75.0534 574.838 94.5008 611.886 129.382C648.936 164.263 671.296 211.954 674.414 262.744C674.744 258.504 674.94 254.254 675 250C675 196.957 653.928 146.086 616.422 108.579C578.914 71.0714 528.044 50 475 50ZM134.863 317.822C124.065 325.954 115.297 336.478 109.248 348.566C103.199 360.656 100.034 373.982 100 387.5C100.031 391.652 100.357 395.796 100.977 399.902C102.939 386.476 107.997 373.69 115.751 362.554C123.505 351.42 133.742 342.24 145.654 335.742C141.441 330.162 137.824 324.156 134.863 317.822ZM663.378 341.504C661.012 348.204 658.29 354.772 655.224 361.182C666.948 367.762 676.998 376.956 684.594 388.048C692.19 399.142 697.128 411.836 699.024 425.146C699.654 420.96 699.98 416.734 700 412.5C699.97 398.608 696.632 384.924 690.264 372.578C683.896 360.234 674.68 349.582 663.378 341.504Z" fill="white"/>
    </g>
</svg>
